<svg xmlns="http://www.w3.org/2000/svg" xmlns:xlink="http://www.w3.org/1999/xlink" width="663.19" height="762" viewBox="0 0 663.19 762"><defs><linearGradient id="linear-gradient" x1=".5" x2=".5" y1="1" gradientUnits="objectBoundingBox"><stop offset="0" stop-color="gray" stop-opacity=".251"/><stop offset=".54" stop-color="gray" stop-opacity=".122"/><stop offset="1" stop-color="gray" stop-opacity=".102"/></linearGradient><linearGradient id="linear-gradient-5" x1=".5" x2=".5" y1="1" y2=".002" xlink:href="#linear-gradient"/><linearGradient id="linear-gradient-6" x1=".5" x2=".5" y1="1" y2="0" xlink:href="#linear-gradient"/><linearGradient id="linear-gradient-7" x1=".5" x2=".5" y1="1" y2="0" xlink:href="#linear-gradient"/><linearGradient id="linear-gradient-8" x1=".5" x2=".5" y1="1" y2="0" xlink:href="#linear-gradient"/><linearGradient id="linear-gradient-9" x1=".5" x2=".5" y1="1" y2="0" xlink:href="#linear-gradient"/><linearGradient id="linear-gradient-11" x1=".5" x2=".5" y1="1" y2="0" xlink:href="#linear-gradient"/><linearGradient id="linear-gradient-13" x1=".5" x2=".5" y1="1" y2="0" xlink:href="#linear-gradient"/><linearGradient id="linear-gradient-14" x1=".5" x2=".5" y1="1" y2="0" xlink:href="#linear-gradient"/><linearGradient id="linear-gradient-15" x1=".501" x2=".501" y1="1.001" y2=".001" xlink:href="#linear-gradient"/><linearGradient id="linear-gradient-16" x1=".5" x2=".5" y1="1" y2="0" xlink:href="#linear-gradient"/><linearGradient id="linear-gradient-17" x1=".5" x2=".5" y1="1" y2="0" xlink:href="#linear-gradient"/><linearGradient id="linear-gradient-18" x1=".5" x2=".5" y1="1" y2="0" xlink:href="#linear-gradient"/><linearGradient id="linear-gradient-19" x1=".5" x2=".5" y1="1" y2="0" xlink:href="#linear-gradient"/><linearGradient id="linear-gradient-20" x1=".5" x2=".5" y1="1" y2="0" xlink:href="#linear-gradient"/><linearGradient id="linear-gradient-22" x1=".5" x2=".5" y1="1" y2="0" xlink:href="#linear-gradient"/><linearGradient id="linear-gradient-23" x1=".5" x2=".5" y1="1" y2="0" xlink:href="#linear-gradient"/><linearGradient id="linear-gradient-24" x1=".5" x2=".5" y1="1" y2="0" xlink:href="#linear-gradient"/><linearGradient id="linear-gradient-27" x1=".5" x2=".5" y1="1" y2="0" xlink:href="#linear-gradient"/></defs><g id="Maintainance" transform="translate(0.02)"><rect id="Rectangle_16843" width="9.46" height="6.31" fill="#b0bec5" data-name="Rectangle 16843" transform="translate(333.04 279.64)"/><rect id="Rectangle_16844" width="9.46" height="6.31" fill="#b0bec5" data-name="Rectangle 16844" transform="translate(345.65 279.64)"/><rect id="Rectangle_16845" width="9.46" height="6.31" fill="#b0bec5" data-name="Rectangle 16845" transform="translate(358.27 279.64)"/><rect id="Rectangle_16846" width="9.46" height="6.31" fill="#b0bec5" data-name="Rectangle 16846" transform="translate(370.88 279.64)"/><rect id="Rectangle_16847" width="9.46" height="6.31" fill="#b0bec5" data-name="Rectangle 16847" transform="translate(383.5 279.64)"/><rect id="Rectangle_16848" width="9.46" height="6.31" fill="#b0bec5" data-name="Rectangle 16848" transform="translate(396.12 279.64)"/><rect id="Rectangle_16849" width="9.46" height="6.31" fill="#b0bec5" data-name="Rectangle 16849" transform="translate(408.73 279.64)"/><rect id="Rectangle_16850" width="9.46" height="6.31" fill="#b0bec5" data-name="Rectangle 16850" transform="translate(421.35 279.64)"/><rect id="Rectangle_16851" width="9.46" height="6.31" fill="#b0bec5" data-name="Rectangle 16851" transform="translate(433.96 279.64)"/><rect id="Rectangle_16852" width="9.46" height="6.31" fill="#b0bec5" data-name="Rectangle 16852" transform="translate(446.58 279.64)"/><rect id="Rectangle_16853" width="407.03" height="454.29" fill="url(#linear-gradient)" data-name="Rectangle 16853" transform="translate(256.14 284.02)"/><rect id="Rectangle_16854" width="393.58" height="141.09" fill="#eceff1" data-name="Rectangle 16854" transform="translate(262.87 587.33)"/><rect id="Rectangle_16855" width="15.25" height="72.29" fill="#64ffda" data-name="Rectangle 16855" transform="translate(295.17 620.8)"/><g id="Group_8538" data-name="Group 8538" opacity=".7"><rect id="Rectangle_16856" width="15.25" height="72.29" fill="#64ffda" data-name="Rectangle 16856" transform="translate(325.28 620.8)"/></g><g id="Group_8539" data-name="Group 8539" opacity=".6"><rect id="Rectangle_16857" width="15.25" height="72.29" fill="#64ffda" data-name="Rectangle 16857" transform="translate(355.39 620.8)"/></g><g id="Group_8540" data-name="Group 8540" opacity=".5"><rect id="Rectangle_16858" width="15.25" height="72.29" fill="#64ffda" data-name="Rectangle 16858" transform="translate(385.5 620.8)"/></g><g id="Group_8541" data-name="Group 8541" opacity=".5"><rect id="Rectangle_16859" width="15.25" height="72.29" fill="#64ffda" data-name="Rectangle 16859" transform="translate(415.61 620.8)"/></g><g id="Group_8542" data-name="Group 8542" opacity=".4"><rect id="Rectangle_16860" width="15.25" height="72.29" fill="#64ffda" data-name="Rectangle 16860" transform="translate(445.72 620.8)"/></g><g id="Group_8543" data-name="Group 8543" opacity=".3"><rect id="Rectangle_16861" width="15.25" height="72.29" fill="#64ffda" data-name="Rectangle 16861" transform="translate(475.82 620.8)"/></g><circle id="Ellipse_1467" cx="36.8" cy="36.8" r="36.8" fill="#ffba63" data-name="Ellipse 1467" transform="translate(563.92 619.68)"/><rect id="Rectangle_16862" width="393.58" height="141.09" fill="#eceff1" data-name="Rectangle 16862" transform="translate(262.87 440.75)"/><rect id="Rectangle_16863" width="15.25" height="72.29" fill="#64ffda" data-name="Rectangle 16863" transform="translate(295.17 474.22)"/><g id="Group_8544" data-name="Group 8544" opacity=".7"><rect id="Rectangle_16864" width="15.25" height="72.29" fill="#64ffda" data-name="Rectangle 16864" transform="translate(325.28 474.22)"/></g><g id="Group_8545" data-name="Group 8545" opacity=".6"><rect id="Rectangle_16865" width="15.25" height="72.29" fill="#64ffda" data-name="Rectangle 16865" transform="translate(355.39 474.22)"/></g><g id="Group_8546" data-name="Group 8546" opacity=".5"><rect id="Rectangle_16866" width="15.25" height="72.29" fill="#64ffda" data-name="Rectangle 16866" transform="translate(385.5 474.22)"/></g><g id="Group_8547" data-name="Group 8547" opacity=".5"><rect id="Rectangle_16867" width="15.25" height="72.29" fill="#64ffda" data-name="Rectangle 16867" transform="translate(415.61 474.22)"/></g><g id="Group_8548" data-name="Group 8548" opacity=".4"><rect id="Rectangle_16868" width="15.25" height="72.29" fill="#64ffda" data-name="Rectangle 16868" transform="translate(445.72 474.22)"/></g><g id="Group_8549" data-name="Group 8549" opacity=".3"><rect id="Rectangle_16869" width="15.25" height="72.29" fill="#64ffda" data-name="Rectangle 16869" transform="translate(475.82 474.22)"/></g><circle id="Ellipse_1468" cx="36.8" cy="36.8" r="36.8" fill="#ffba63" data-name="Ellipse 1468" transform="translate(563.92 473.11)"/><rect id="Rectangle_16870" width="393.58" height="141.09" fill="#eceff1" data-name="Rectangle 16870" transform="translate(262.87 294.18)"/><rect id="Rectangle_16871" width="15.25" height="72.29" fill="#64ffda" data-name="Rectangle 16871" transform="translate(295.17 327.64)"/><g id="Group_8550" data-name="Group 8550" opacity=".7"><rect id="Rectangle_16872" width="15.25" height="72.29" fill="#64ffda" data-name="Rectangle 16872" transform="translate(325.28 327.64)"/></g><g id="Group_8551" data-name="Group 8551" opacity=".6"><rect id="Rectangle_16873" width="15.25" height="72.29" fill="#64ffda" data-name="Rectangle 16873" transform="translate(355.39 327.64)"/></g><g id="Group_8552" data-name="Group 8552" opacity=".5"><rect id="Rectangle_16874" width="15.25" height="72.29" fill="#64ffda" data-name="Rectangle 16874" transform="translate(385.5 327.64)"/></g><g id="Group_8553" data-name="Group 8553" opacity=".5"><rect id="Rectangle_16875" width="15.25" height="72.29" fill="#64ffda" data-name="Rectangle 16875" transform="translate(415.61 327.64)"/></g><g id="Group_8554" data-name="Group 8554" opacity=".4"><rect id="Rectangle_16876" width="15.25" height="72.29" fill="#64ffda" data-name="Rectangle 16876" transform="translate(445.72 327.64)"/></g><g id="Group_8555" data-name="Group 8555" opacity=".3"><rect id="Rectangle_16877" width="15.25" height="72.29" fill="#64ffda" data-name="Rectangle 16877" transform="translate(475.82 327.64)"/></g><circle id="Ellipse_1469" cx="39.67" cy="39.67" r="39.67" fill="url(#linear-gradient)" data-name="Ellipse 1469" transform="translate(561.05 323.66)"/><circle id="Ellipse_1470" cx="39.67" cy="39.67" r="39.67" fill="url(#linear-gradient)" data-name="Ellipse 1470" transform="translate(561.05 471.22)"/><circle id="Ellipse_1471" cx="39.67" cy="39.67" r="39.67" fill="url(#linear-gradient)" data-name="Ellipse 1471" transform="translate(561.05 617.79)"/><circle id="Ellipse_1472" cx="36.8" cy="36.8" r="36.8" fill="#ffba63" data-name="Ellipse 1472" transform="translate(563.92 326.53)"/><path id="Path_2462" fill="url(#linear-gradient-5)" d="M740.22,369.67H594.86a5,5,0,0,1-5-5v-7.92a5,5,0,0,1,5-5H740.22Z" data-name="Path 2462" transform="translate(-268.41 -69)"/><path id="Path_2463" fill="#b0bec5" d="M740.22,367.56H597.49a5,5,0,0,1-5-5v-4.77a5,5,0,0,1,5-5H740.22Z" data-name="Path 2463" transform="translate(-268.41 -69)"/><path id="Path_2464" fill="url(#linear-gradient-6)" d="M369.8,272.22l105,92.88,122-25.77-9.45-27.49L492.81,323l-94.59-83a21.49,21.49,0,0,0-31.72,3.74h0A21.49,21.49,0,0,0,369.8,272.22Z" data-name="Path 2464" transform="translate(-268.41 -69)"/><path id="Path_2465" fill="url(#linear-gradient-7)" d="M596.74,339.33s31.12.86,42.62-16.32-52.07-11.17-52.07-11.17Z" data-name="Path 2465" transform="translate(-268.41 -69)"/><circle id="Ellipse_1473" cx="54.12" cy="54.12" r="54.12" fill="url(#linear-gradient-8)" data-name="Ellipse 1473" transform="translate(33.5 34.44)"/><path id="Path_2466" fill="url(#linear-gradient-9)" d="M333.7,216.83s-69.5,46.8-51.85,191.48a126.66,126.66,0,0,1-4.46,52.07l-9,29.6s152.9,3.44,157.19,0c2.66-2.13.59-56.65-6.87-132.28-4.57-46.33,9.76-110.78-39.51-146Z" data-name="Path 2466" transform="translate(-268.41 -69)"/><path id="Path_2467" fill="url(#linear-gradient)" d="M157.19,419.27l67.86,143.45,7.73,146.02h-48.1L164.06,557.56l-41.23-73.01L81.6,708.74H33.5L48.1,542.1,0,420.99Z" data-name="Path 2467"/><path id="Path_2468" fill="url(#linear-gradient-11)" d="M501.2,777.74l14.6,22.33s49,18.9,27.49,30.92H449.66V777.74Z" data-name="Path 2468" transform="translate(-268.41 -69)"/><path id="Path_2469" fill="url(#linear-gradient-11)" d="M349.16,777.74l14.6,22.33s49,18.9,27.49,30.92H297.62V777.74Z" data-name="Path 2469" transform="translate(-268.41 -69)"/><g id="Group_8556" data-name="Group 8556" opacity=".2"><path id="Path_2470" fill="url(#linear-gradient-13)" d="M356.89,102.59a53.85,53.85,0,0,0-26.66,7,54.11,54.11,0,0,1,48.17,96.75,54.12,54.12,0,0,0-21.51-103.78Z" data-name="Path 2470" transform="translate(-268.41 -69)"/></g><path id="Path_2471" fill="url(#linear-gradient-14)" d="M421.82,69,406.76,92c-5.41,8.27-13.27,17.66-23,15.74-4.52-.89-8.14-4.15-11.75-7C360.2,91.36,345.59,85,330.51,84.91s-30.51,6.7-39,19.15c-6.29,9.19-8.46,20.53-9.7,31.59-2.49,22.12,0,48.23,18.47,60.65a8.68,8.68,0,0,0,5.24,1.89c2-.13,3.62-1.4,5.12-2.66,23.12-19.37,36-50.87,63.84-64.17,12.29-5.86,30.17-5.91,40.08-15.87C429.16,100.85,413,82.47,421.82,69Z" data-name="Path 2471" transform="translate(-268.41 -69)"/><g id="Group_8557" data-name="Group 8557" opacity=".2"><path id="Path_2472" fill="url(#linear-gradient-15)" d="M366,100.74c3.61,2.87,7.22,6.13,11.75,7a13,13,0,0,0,5.56-.11c-4.31-1-7.8-4.15-11.29-6.91-11.81-9.38-26.42-15.74-41.5-15.83-1.06,0-2.11,0-3.17.09C341.45,85.81,355,92,366,100.74Z" data-name="Path 2472" transform="translate(-268.41 -69)"/><path id="Path_2473" fill="url(#linear-gradient-16)" d="M421.82,69l-8.69,13.29c.83,10.93,5.63,23-4.55,33.2-9.92,10-27.8,10-40.08,15.87-27.87,13.3-40.73,44.81-63.84,64.17a16.5,16.5,0,0,1-2.56,1.84,6.71,6.71,0,0,0,3.45.82c2-.13,3.62-1.4,5.12-2.66,23.12-19.37,36-50.87,63.84-64.17,12.29-5.86,30.17-5.91,40.08-15.87C429.16,100.85,413,82.47,421.82,69Z" data-name="Path 2473" transform="translate(-268.41 -69)"/></g><g id="Group_8558" data-name="Group 8558" opacity=".2"><path id="Path_2474" fill="url(#linear-gradient-17)" d="M418.74,357.71c-4.57-46.33,9.76-110.78-39.51-146l-10.43,1.18c47.35,35.48,33.4,99,37.92,144.84,7.46,75.63,9.54,130.15,6.87,132.28-1.31,1-16.44,1.46-36.83,1.52,26.23.07,47.3-.27,48.86-1.52C428.27,487.86,426.19,433.34,418.74,357.71Z" data-name="Path 2474" transform="translate(-268.41 -69)"/></g><path id="Path_2475" fill="url(#linear-gradient-18)" d="M339.54,290.59l105,92.88,122-25.77L557,330.22l-94.49,11.17-94.59-83a21.49,21.49,0,0,0-31.72,3.74h0A21.49,21.49,0,0,0,339.54,290.59Z" data-name="Path 2475" transform="translate(-268.41 -69)"/><path id="Path_2476" fill="url(#linear-gradient-19)" d="M566.48,357.71s31.12.86,42.62-16.32S557,330.22,557,330.22Z" data-name="Path 2476" transform="translate(-268.41 -69)"/><rect id="Rectangle_16878" width="46.38" height="46.38" fill="url(#linear-gradient-20)" data-name="Rectangle 16878" rx="20.47" transform="translate(64.42 119.49)"/><g id="Group_8559" data-name="Group 8559" opacity=".2"><path id="Path_2477" fill="url(#linear-gradient)" d="M113.38,484.55,72.15,708.74H81.6l38.91-211.57Z" data-name="Path 2477"/><path id="Path_2478" fill="url(#linear-gradient-22)" d="M225.05,562.72,157.19,419.27l-9.4.1L215.6,562.72l7.73,146.02h9.45Z" data-name="Path 2478"/></g><g id="Group_8560" data-name="Group 8560" opacity=".2"><path id="Path_2479" fill="url(#linear-gradient-23)" d="M515.8,800.08l-14.6-22.33h-4.3l14.6,22.33S560.47,819,539,831h4.29C564.76,819,515.8,800.08,515.8,800.08Z" data-name="Path 2479" transform="translate(-268.41 -69)"/></g><g id="Group_8561" data-name="Group 8561" opacity=".2"><path id="Path_2480" fill="url(#linear-gradient-24)" d="M368.06,800.08l-14.6-22.33h-4.29l14.6,22.33s49,18.9,27.49,30.92h4.29C417,819,368.06,800.08,368.06,800.08Z" data-name="Path 2480" transform="translate(-268.41 -69)"/></g><g id="Group_8562" data-name="Group 8562" opacity=".2"><path id="Path_2481" fill="url(#linear-gradient)" d="M304.19,265.68l-1.83-5.32-87.65,10.36Z" data-name="Path 2481"/></g><path id="Path_2482" fill="url(#linear-gradient-16)" d="M43.17,220.58l29.19-55.13L121,183.83,72.36,254.09Z" data-name="Path 2482"/><path id="Path_2483" fill="#ca7070" d="M372.13,277.09l102.09,90.34,118.63-25.06-9.19-26.73-91.9,10.86-92-80.76a20.9,20.9,0,0,0-30.85,3.64h0A20.9,20.9,0,0,0,372.13,277.09Z" data-name="Path 2483" transform="translate(-268.41 -69)"/><path id="Path_2484" fill="#ca7070" d="M592.85,342.36s30.27.84,41.45-15.87-50.64-10.86-50.64-10.86Z" data-name="Path 2484" transform="translate(-268.41 -69)"/><circle id="Ellipse_1474" cx="52.63" cy="52.63" r="52.63" fill="#ca7070" data-name="Ellipse 1474" transform="translate(37.69 43.95)"/><path id="Path_2485" fill="#263238" d="M337,223.22s-67.6,45.52-50.43,186.24a123.191,123.191,0,0,1-4.34,50.65l-8.72,28.79s148.71,3.34,152.89,0c2.59-2.07.57-55.1-6.68-128.66-4.44-45.06,9.49-107.75-38.43-142Z" data-name="Path 2485" transform="translate(-268.41 -69)"/><path id="Path_2486" fill="#5caade" d="M157.99,418.22l66,139.52,7.51,142.02H184.72L164.67,552.73l-40.1-71.02L84.47,699.76H37.68l14.2-162.07L5.1,419.89Z" data-name="Path 2486"/><path id="Path_2487" fill="#263238" d="M499.92,768.76l14.2,21.72s47.62,18.38,26.73,30.08H449.79v-51.8Z" data-name="Path 2487" transform="translate(-268.41 -69)"/><path id="Path_2488" fill="#263238" d="M352,768.76l14.2,21.72s47.62,18.38,26.73,30.08H301.92v-51.8Z" data-name="Path 2488" transform="translate(-268.41 -69)"/><path id="Path_2489" fill="#fff" d="M359.57,112.11a52.37,52.37,0,0,0-25.93,6.84A52.63,52.63,0,0,1,380.49,213a52.64,52.64,0,0,0-20.92-100.93Z" data-name="Path 2489" opacity=".2" transform="translate(-268.41 -69)"/><path id="Path_2490" fill="#263238" d="M422.71,79.44l-14.64,22.39c-5.26,8-12.9,17.17-22.33,15.31-4.4-.87-7.91-4-11.42-6.83-11.5-9.12-25.7-15.31-40.32-15.4s-29.67,6.52-38,18.62c-6.11,8.93-8.22,20-9.44,30.73-2.42,21.51,0,46.91,18,59a8.45,8.45,0,0,0,5.09,1.83c1.9-.13,3.52-1.36,5-2.59,22.48-18.83,35-49.48,62.1-62.41,11.95-5.7,29.34-5.75,39-15.43C429.86,110.42,414.14,92.54,422.71,79.44Z" data-name="Path 2490" transform="translate(-268.41 -69)"/><g id="Group_8563" data-name="Group 8563" opacity=".2"><path id="Path_2491" fill="#fff" d="M368.46,110.31c3.51,2.79,7,6,11.42,6.83a12.69,12.69,0,0,0,5.41-.1c-4.19-1-7.59-4-11-6.72C362.82,101.19,348.62,95,334,94.91c-1,0-2.05,0-3.08.09C344.55,95.79,357.7,101.76,368.46,110.31Z" data-name="Path 2491" transform="translate(-268.41 -69)"/><path id="Path_2492" fill="#fff" d="M422.71,79.44l-8.46,12.93c.8,10.63,5.48,22.34-4.43,32.29-9.65,9.68-27,9.73-39,15.43-27.11,12.93-39.61,43.58-62.1,62.41a16,16,0,0,1-2.49,1.79,6.52,6.52,0,0,0,3.35.8c1.9-.13,3.52-1.36,5-2.59,22.48-18.83,35-49.48,62.1-62.41,11.95-5.7,29.34-5.75,39-15.43C429.86,110.42,414.14,92.54,422.71,79.44Z" data-name="Path 2492" transform="translate(-268.41 -69)"/></g><path id="Path_2493" fill="#fff" d="M419.72,360.23c-4.44-45.06,9.49-107.75-38.43-142l-10.14,1.15c46.05,34.51,32.48,96.31,36.88,140.88,7.25,73.56,9.27,126.59,6.68,128.66-1.27,1-16,1.42-35.82,1.48,25.52.07,46-.27,47.52-1.48C429,486.82,427,433.8,419.72,360.23Z" data-name="Path 2493" opacity=".2" transform="translate(-268.41 -69)"/><path id="Path_2494" fill="#ca7070" d="M342.69,295l102.09,90.3,118.63-25.06-9.19-26.73-91.9,10.86-92-80.76a20.9,20.9,0,0,0-30.85,3.64h0A20.9,20.9,0,0,0,342.69,295Z" data-name="Path 2494" transform="translate(-268.41 -69)"/><path id="Path_2495" fill="#ca7070" d="M563.41,360.23s30.27.84,41.45-15.87-50.64-10.86-50.64-10.86Z" data-name="Path 2495" transform="translate(-268.41 -69)"/><rect id="Rectangle_16879" width="45.11" height="45.11" fill="#ca7070" data-name="Rectangle 16879" rx="20.47" transform="translate(67.76 126.65)"/><g id="Group_8564" data-name="Group 8564" opacity=".2"><path id="Path_2496" fill="#fff" d="M115.38,481.71,75.28,699.76h9.19l37.84-205.77Z" data-name="Path 2496"/><path id="Path_2497" fill="#fff" d="M223.99,557.74l-66-139.52-9.15.1L214.8,557.74l7.51,142.02h9.19Z" data-name="Path 2497"/></g><path id="Path_2498" fill="#fff" d="M514.12,790.49l-14.2-21.72h-4.18l14.2,21.72s47.62,18.38,26.73,30.08h4.18C561.74,808.87,514.12,790.49,514.12,790.49Z" data-name="Path 2498" opacity=".2" transform="translate(-268.41 -69)"/><path id="Path_2499" fill="#fff" d="M370.43,790.49l-14.2-21.72H352l14.2,21.72s47.62,18.38,26.73,30.08h4.18C418,808.87,370.43,790.49,370.43,790.49Z" data-name="Path 2499" opacity=".2" transform="translate(-268.41 -69)"/><path id="Path_2500" fill="#fff" d="M300.95,268.84l-1.77-5.17-85.25,10.07Z" data-name="Path 2500" opacity=".2"/><path id="Path_2501" fill="#263238" d="M47.09,224.97l28.38-53.61,47.31,17.87L75.47,257.56Z" data-name="Path 2501"/><path id="Path_2502" fill="url(#linear-gradient-27)" d="M730.24,354.36l86-116.94a5,5,0,0,1,7-1.06l4,2.95a5,5,0,0,1,1.06,7l-86,116.94Z" data-name="Path 2502" transform="translate(-268.41 -69)"/><path id="Path_2503" fill="#b0bec5" d="M731.95,355.61l84.54-115a5,5,0,0,1,7-1.06l.41.3a5,5,0,0,1,1.06,7l-84.54,115Z" data-name="Path 2503" transform="translate(-268.41 -69)"/></g></svg>